<mxfile host="65bd71144e">
    <diagram id="vT6_6rmWmZ_V7wgw7oB6" name="第 1 页">
        <mxGraphModel dx="865" dy="520" grid="1" gridSize="10" guides="1" tooltips="1" connect="1" arrows="1" fold="1" page="1" pageScale="1" pageWidth="850" pageHeight="1100" math="0" shadow="0">
            <root>
                <mxCell id="0"/>
                <mxCell id="1" parent="0"/>
                <mxCell id="2" value="" style="rounded=0;whiteSpace=wrap;html=1;fillColor=#a20025;fontColor=#ffffff;strokeColor=#6F0000;" vertex="1" parent="1">
                    <mxGeometry x="170" y="50" width="200" height="740" as="geometry"/>
                </mxCell>
                <mxCell id="3" value="高地址" style="text;html=1;align=center;verticalAlign=middle;resizable=0;points=[];autosize=1;strokeColor=none;fillColor=none;" vertex="1" parent="1">
                    <mxGeometry x="375" y="35" width="60" height="30" as="geometry"/>
                </mxCell>
                <mxCell id="5" value="" style="rounded=0;whiteSpace=wrap;html=1;fillColor=#60a917;fontColor=#ffffff;strokeColor=#2D7600;" vertex="1" parent="1">
                    <mxGeometry x="180" y="240" width="180" height="440" as="geometry"/>
                </mxCell>
                <mxCell id="10" value="返回值1" style="rounded=0;whiteSpace=wrap;html=1;fillColor=#1ba1e2;fontColor=#ffffff;strokeColor=#006EAF;" vertex="1" parent="1">
                    <mxGeometry x="190" y="334" width="160" height="30" as="geometry"/>
                </mxCell>
                <mxCell id="12" value="当地变量1" style="rounded=0;whiteSpace=wrap;html=1;fillColor=#0050ef;fontColor=#ffffff;strokeColor=#001DBC;" vertex="1" parent="1">
                    <mxGeometry x="190" y="506" width="160" height="30" as="geometry"/>
                </mxCell>
                <mxCell id="13" value="当地变量..." style="rounded=0;whiteSpace=wrap;html=1;fillColor=#0050ef;fontColor=#ffffff;strokeColor=#001DBC;" vertex="1" parent="1">
                    <mxGeometry x="190" y="475" width="160" height="30" as="geometry"/>
                </mxCell>
                <mxCell id="14" value="调用其他函数的返回值1" style="rounded=0;whiteSpace=wrap;html=1;fillColor=#0050ef;fontColor=#ffffff;strokeColor=#001DBC;" vertex="1" parent="1">
                    <mxGeometry x="190" y="630" width="160" height="30" as="geometry"/>
                </mxCell>
                <mxCell id="15" value="调用其他函数的返回值..." style="rounded=0;whiteSpace=wrap;html=1;fillColor=#0050ef;fontColor=#ffffff;strokeColor=#001DBC;" vertex="1" parent="1">
                    <mxGeometry x="190" y="599" width="160" height="30" as="geometry"/>
                </mxCell>
                <mxCell id="16" value="调用其他函数的参数" style="rounded=0;whiteSpace=wrap;html=1;fillColor=#0050ef;fontColor=#ffffff;strokeColor=#001DBC;" vertex="1" parent="1">
                    <mxGeometry x="190" y="568" width="160" height="30" as="geometry"/>
                </mxCell>
                <mxCell id="17" value="调用其他函数的参数..." style="rounded=0;whiteSpace=wrap;html=1;fillColor=#0050ef;fontColor=#ffffff;strokeColor=#001DBC;" vertex="1" parent="1">
                    <mxGeometry x="190" y="537" width="160" height="30" as="geometry"/>
                </mxCell>
                <mxCell id="18" value="argsize" style="shape=crossbar;whiteSpace=wrap;html=1;rounded=1;direction=south;" vertex="1" parent="1">
                    <mxGeometry x="350" y="271" width="110" height="125" as="geometry"/>
                </mxCell>
                <mxCell id="19" value="栈" style="text;html=1;align=center;verticalAlign=middle;resizable=0;points=[];autosize=1;strokeColor=#6F0000;fillColor=#a20025;fontColor=#ffffff;" vertex="1" parent="1">
                    <mxGeometry x="250" y="65" width="40" height="30" as="geometry"/>
                </mxCell>
                <mxCell id="20" value="framesize" style="shape=crossbar;whiteSpace=wrap;html=1;rounded=1;direction=south;" vertex="1" parent="1">
                    <mxGeometry x="350" y="444" width="110" height="217" as="geometry"/>
                </mxCell>
                <mxCell id="22" value="0(BP)" style="line;strokeWidth=2;html=1;" vertex="1" parent="1">
                    <mxGeometry x="30" y="470" width="160" height="10" as="geometry"/>
                </mxCell>
                <mxCell id="23" value="" style="shape=flexArrow;endArrow=classic;html=1;" edge="1" parent="1">
                    <mxGeometry width="50" height="50" relative="1" as="geometry">
                        <mxPoint x="400" y="70" as="sourcePoint"/>
                        <mxPoint x="400" y="230" as="targetPoint"/>
                    </mxGeometry>
                </mxCell>
                <mxCell id="24" value="调用者bp" style="rounded=0;whiteSpace=wrap;html=1;fillColor=#0050ef;fontColor=#ffffff;strokeColor=#001DBC;" vertex="1" parent="1">
                    <mxGeometry x="190" y="445" width="160" height="30" as="geometry"/>
                </mxCell>
                <mxCell id="25" value="返回地址" style="rounded=0;whiteSpace=wrap;html=1;" vertex="1" parent="1">
                    <mxGeometry x="190" y="406" width="160" height="30" as="geometry"/>
                </mxCell>
                <mxCell id="26" value="硬件SP" style="line;strokeWidth=2;html=1;" vertex="1" parent="1">
                    <mxGeometry x="30" y="656" width="160" height="10" as="geometry"/>
                </mxCell>
                <mxCell id="27" value="返回值..." style="rounded=0;whiteSpace=wrap;html=1;fillColor=#1ba1e2;fontColor=#ffffff;strokeColor=#006EAF;" vertex="1" parent="1">
                    <mxGeometry x="190" y="365" width="160" height="30" as="geometry"/>
                </mxCell>
                <mxCell id="28" value="参数..." style="rounded=0;whiteSpace=wrap;html=1;fillColor=#1ba1e2;fontColor=#ffffff;strokeColor=#006EAF;" vertex="1" parent="1">
                    <mxGeometry x="190" y="303" width="160" height="30" as="geometry"/>
                </mxCell>
                <mxCell id="29" value="参数1" style="rounded=0;whiteSpace=wrap;html=1;fillColor=#1ba1e2;fontColor=#ffffff;strokeColor=#006EAF;" vertex="1" parent="1">
                    <mxGeometry x="190" y="272" width="160" height="30" as="geometry"/>
                </mxCell>
            </root>
        </mxGraphModel>
    </diagram>
</mxfile>